<svg width="24" height="24" viewBox="0 0 24 24" fill="none" xmlns="http://www.w3.org/2000/svg">
<rect width="24" height="24" rx="4" fill="#21D4B4"/>
<path d="M12 20.9582C7.05835 20.9582 3.04169 16.9415 3.04169 11.9998C3.04169 7.05817 7.05835 3.0415 12 3.0415C16.9417 3.0415 20.9584 7.05817 20.9584 11.9998C20.9584 16.9415 16.9417 20.9582 12 20.9582ZM12 4.2915C7.75002 4.2915 4.29169 7.74984 4.29169 11.9998C4.29169 16.2498 7.75002 19.7082 12 19.7082C16.25 19.7082 19.7084 16.2498 19.7084 11.9998C19.7084 7.74984 16.25 4.2915 12 4.2915Z" fill="white"/>
<path d="M10.8166 14.9832C10.65 14.9832 10.4916 14.9165 10.375 14.7998L8.01664 12.4415C7.77497 12.1998 7.77497 11.7998 8.01664 11.5582C8.2583 11.3165 8.6583 11.3165 8.89997 11.5582L10.8166 13.4748L15.1 9.1915C15.3416 8.94984 15.7416 8.94984 15.9833 9.1915C16.225 9.43317 16.225 9.83317 15.9833 10.0748L11.2583 14.7998C11.1416 14.9165 10.9833 14.9832 10.8166 14.9832Z" fill="white"/>
</svg>
