<svg width="62" height="17" viewBox="0 0 62 17" fill="none" xmlns="http://www.w3.org/2000/svg">
<path fill-rule="evenodd" clip-rule="evenodd" d="M47.6996 2.99959C46.1996 2.99959 44.9996 3.39959 43.9996 3.59959L43.6996 5.89959C44.1996 5.69959 45.5996 5.29959 46.7996 5.19959C47.9996 5.19959 48.6996 5.39959 48.4996 6.49959C44.8996 6.49959 42.4996 7.19959 41.9996 9.59959C41.2996 13.5996 45.6996 13.6996 47.3996 11.8996L47.1996 12.9996H50.3996L51.7996 6.49959C52.2996 3.79959 49.8996 2.89959 47.6996 2.99959ZM47.8996 9.69959C47.6996 10.4996 46.9996 10.7996 46.1996 10.8996C45.4996 10.8996 44.8996 10.4996 45.2996 9.69959C45.6996 9.09959 46.5996 9.09959 47.2996 9.09959H48.0996C47.9996 8.99959 47.8996 9.39959 47.8996 9.69959Z" fill="#32A6CE"/>
<path fill-rule="evenodd" clip-rule="evenodd" d="M43.6996 5.89961C44.1996 5.69961 45.5996 5.29961 46.7996 5.19961C47.9996 5.19961 48.6996 5.39961 48.4996 6.49961C44.8996 6.49961 42.4996 7.19961 41.9996 9.59961C41.2996 13.5996 45.6996 13.6996 47.3996 11.8996L47.1996 12.9996H50.3996L51.7996 6.49961C52.3996 3.79961 49.8996 3.09961 47.6996 3.09961M47.8996 9.69961C47.6996 10.4996 46.9996 10.7996 46.1996 10.8996C45.4996 10.8996 44.8996 10.4996 45.2996 9.69961C45.6996 9.09961 46.5996 9.09961 47.2996 9.09961H48.0996C47.9996 8.99961 47.8996 9.39961 47.8996 9.69961Z" fill="#1A80AD"/>
<path fill-rule="evenodd" clip-rule="evenodd" d="M54.4994 0L51.8994 13H55.0994L57.7994 0H54.4994Z" fill="#32A6CE"/>
<path fill-rule="evenodd" clip-rule="evenodd" d="M56.7994 0L51.8994 13H55.0994L57.7994 0H54.4994H56.7994Z" fill="#1A80AD"/>
<path fill-rule="evenodd" clip-rule="evenodd" d="M39.5996 0H33.6996L31.0996 13H34.5996L35.4996 9H37.9996C40.3996 9 42.3996 7.6 42.8996 5.1C43.3996 2.2 41.2996 0 39.5996 0ZM39.4996 4.5C39.2996 5.4 38.3996 6 37.4996 6H35.8996L36.5996 3H38.2996C39.1996 3 39.6996 3.6 39.4996 4.5Z" fill="#32A6CE"/>
<path fill-rule="evenodd" clip-rule="evenodd" d="M39.6 0H35.6L31 13H34.5L35.4 9H37.9C40.3 9 42.3 7.6 42.8 5.1C43.4 2.2 41.3 0 39.6 0ZM39.5 4.5C39.3 5.4 38.4 6 37.5 6H35.9L36.6 3H38.3C39.2 3 39.7 3.6 39.5 4.5Z" fill="#1A80AD"/>
<path fill-rule="evenodd" clip-rule="evenodd" d="M16.4992 2.99959C14.9992 2.99959 13.7992 3.39959 12.8992 3.59959L12.5992 5.89959C12.9992 5.69959 14.4992 5.29959 15.6992 5.19959C16.8992 5.19959 17.5992 5.39959 17.3992 6.49959C13.8992 6.49959 11.4992 7.19959 10.9992 9.59959C10.2992 13.5996 14.5992 13.6996 16.2992 11.8996L16.0992 12.9996H19.2992L20.6992 6.49959C21.1992 3.79959 18.6992 2.89959 16.4992 2.99959ZM16.7992 9.69959C16.5992 10.4996 15.8992 10.7996 15.0992 10.8996C14.3992 10.8996 13.7992 10.4996 14.2992 9.69959C14.6992 9.09959 15.5992 9.09959 16.1992 9.09959H16.9992C16.8992 8.99959 16.7992 9.39959 16.7992 9.69959Z" fill="#21789E"/>
<path fill-rule="evenodd" clip-rule="evenodd" d="M12.6998 5.89961C13.0998 5.69961 14.5998 5.29961 15.7998 5.19961C16.9998 5.19961 17.6998 5.39961 17.4998 6.49961C13.9998 6.49961 11.5998 7.19961 11.0998 9.59961C10.3998 13.5996 14.6998 13.6996 16.3998 11.8996L16.0998 12.9996H19.2998L20.6998 6.49961C21.2998 3.79961 18.7998 3.09961 16.5998 3.09961M16.7998 9.69961C16.5998 10.4996 15.8998 10.7996 15.0998 10.8996C14.3998 10.8996 13.7998 10.4996 14.2998 9.69961C14.6998 9.09961 15.5998 9.09961 16.1998 9.09961H16.9998C16.8998 8.99961 16.7998 9.39961 16.7998 9.69961Z" fill="#1A5B80"/>
<path fill-rule="evenodd" clip-rule="evenodd" d="M22 3H25.2L25.7 8.6L28.9 3H32.2L24.6 17H21L23.3 12.8L22 3Z" fill="#21789E"/>
<path fill-rule="evenodd" clip-rule="evenodd" d="M25.2 3.2L25.7 8.7L28.9 3H32.2L24.6 17H21L23.3 12.9" fill="#1A5B80"/>
<path fill-rule="evenodd" clip-rule="evenodd" d="M8.6 0H2.6L0 13H3.5L4.4 9H6.9C9.3 9 11.3 7.6 11.8 5.1C12.4 2.2 10.3 0 8.6 0ZM8.5 4.5C8.3 5.4 7.4 6 6.5 6H4.9L5.6 3H7.3C8.2 3 8.7 3.6 8.5 4.5Z" fill="#21789E"/>
<path fill-rule="evenodd" clip-rule="evenodd" d="M8.6 0H5.9L0 13H3.5L4.4 9H6.9C9.3 9 11.3 7.6 11.8 5.1C12.4 2.2 10.3 0 8.6 0ZM8.5 4.5C8.3 5.4 7.4 6 6.5 6H4.9L5.6 3H7.3C8.2 3 8.7 3.6 8.5 4.5Z" fill="#1A5B80"/>
<path fill-rule="evenodd" clip-rule="evenodd" d="M15.8998 6.5C13.1998 6.7 11.3998 7.5 10.9998 9.5C10.2998 13.5 14.5998 13.6 16.2998 11.8L16.0998 13H19.2998L19.7998 10.6L15.8998 6.5ZM16.7998 9.7C16.5998 10.5 15.8998 10.8 15.0998 10.9C14.3998 10.9 13.7998 10.5 14.2998 9.7C14.6998 9.1 15.5998 9.1 16.1998 9.1H16.9998C16.8998 9 16.7998 9.4 16.7998 9.7ZM25.8998 8.5L25.6998 8.8L27.7998 10.8L32.1998 3H28.8998L25.8998 8.5ZM3.4998 13L4.39981 9L0.299805 13H3.4998Z" fill="#06435E"/>
<path fill-rule="evenodd" clip-rule="evenodd" d="M34.4998 13L35.3998 8.8V8.9L31.2998 13H34.4998ZM46.9998 6.5C44.2998 6.7 42.4998 7.5 42.0998 9.5C41.3998 13.5 45.7998 13.6 47.4998 11.8L47.1998 13H50.3998L50.8998 10.6L46.9998 6.5ZM47.8998 9.7C47.6998 10.5 46.9998 10.8 46.1998 10.9C45.4998 10.9 44.8998 10.5 45.2998 9.7C45.6998 9.1 46.5998 9.1 47.2998 9.1H48.0998C47.9998 9 47.8998 9.4 47.8998 9.7ZM54.1998 7.1L51.8998 13H55.0998L55.9998 9L54.1998 7.1Z" fill="#2273AA"/>
<path d="M58.5 2.10039V0.700392H58V0.500391H59.3V0.700392H58.8V2.10039H58.5ZM59.5 2.10039V0.500391H59.8L60.2 1.60039C60.2 1.70039 60.3 1.80039 60.3 1.80039C60.3 1.70039 60.3 1.70039 60.4 1.50039L60.8 0.400391H61.1V2.00039H60.9V0.600391L60.4 2.00039H60.1L59.6 0.600391V2.00039H59.5V2.10039Z" fill="#32A6CE"/>
</svg>
