<svg width="65" height="25" viewBox="0 0 65 25" fill="none" xmlns="http://www.w3.org/2000/svg">
<path d="M29.111 11.3854V19.1294H26.6523V0.00139947H33.1697C33.9479 -0.0155775 34.7217 0.122052 35.4463 0.406314C36.1709 0.690577 36.8319 1.11582 37.391 1.6574C38.535 2.68673 39.1777 4.15873 39.1537 5.69473C39.1705 6.45881 39.0216 7.21746 38.7173 7.91854C38.4131 8.61961 37.9606 9.24649 37.391 9.75607C36.2497 10.8441 34.8417 11.3881 33.1697 11.3854H29.111ZM29.111 2.35606V9.03607H33.231C34.1457 9.06273 35.0257 8.7054 35.663 8.04673C36.9537 6.7934 36.9857 4.72673 35.727 3.43607L35.663 3.37207C35.3526 3.04028 34.9753 2.77815 34.5561 2.60301C34.1368 2.42786 33.6852 2.34369 33.231 2.35606H29.111ZM44.8177 5.61473C46.6363 5.61473 48.0683 6.10007 49.119 7.07073C50.1697 8.0414 50.695 9.37473 50.695 11.0627V19.1321H48.3457V17.3134H48.239C47.2203 18.8094 45.8657 19.5587 44.1777 19.5587C42.735 19.5587 41.5297 19.1321 40.559 18.2761C40.0936 17.8834 39.7214 17.392 39.4696 16.8376C39.2177 16.2831 39.0925 15.6796 39.103 15.0707C39.103 13.7161 39.615 12.6387 40.639 11.8387C41.663 11.0387 43.0283 10.6361 44.7403 10.6361C46.199 10.6361 47.4017 10.9027 48.3457 11.4361V10.8734C48.3487 10.4584 48.259 10.0479 48.0833 9.67192C47.9075 9.29594 47.6501 8.96392 47.3297 8.70007C46.6796 8.11319 45.8321 7.79321 44.9563 7.80407C43.5857 7.80407 42.4977 8.38273 41.6977 9.54007L39.535 8.1774C40.7217 6.46807 42.4843 5.61473 44.8177 5.61473ZM41.6363 15.1241C41.6351 15.4366 41.7083 15.7449 41.8497 16.0235C41.9911 16.3022 42.1967 16.5432 42.4497 16.7267C42.9937 17.1534 43.6683 17.3827 44.359 17.3667C45.3965 17.3641 46.3907 16.9509 47.1243 16.2174C47.9377 15.4494 48.3457 14.5534 48.3457 13.5187C47.5777 12.9081 46.511 12.6014 45.1403 12.6014C44.143 12.6014 43.3083 12.8414 42.6417 13.3241C41.9723 13.8174 41.6363 14.4121 41.6363 15.1241ZM64.1883 6.0414L55.983 24.9027H53.447L56.4923 18.3027L51.0923 6.0414H53.7643L57.6657 15.4441H57.719L61.5137 6.0414H64.1883Z" fill="#5F6368"/>
<path d="M21.5429 11.93C21.5429 11.1806 21.4816 10.434 21.3536 9.69531H10.9883V13.9273H16.9243C16.8031 14.6033 16.5462 15.2476 16.169 15.8215C15.7917 16.3953 15.3021 16.8867 14.7296 17.266V20.0153H18.2736C20.3483 18.106 21.5429 15.2766 21.5429 11.93Z" fill="#4285F4"/>
<path d="M10.9886 22.6712C13.9539 22.6712 16.4526 21.6979 18.2739 20.0179L14.7299 17.2685C13.7433 17.9379 12.4739 18.3192 10.9886 18.3192C8.12192 18.3192 5.68992 16.3859 4.81792 13.7832H1.16992V16.6152C2.08417 18.4357 3.48658 19.9661 5.22046 21.0356C6.95435 22.105 8.95142 22.6713 10.9886 22.6712Z" fill="#34A853"/>
<path d="M4.82063 13.7834C4.35933 12.4187 4.35933 10.9402 4.82063 9.57543V6.74609H1.16996C0.400645 8.27777 0 9.96807 0 11.6821C0 13.3961 0.400645 15.0864 1.16996 16.6181L4.82063 13.7834Z" fill="#FBBC04"/>
<path d="M10.9886 5.04207C12.5557 5.01703 14.0699 5.60891 15.2046 6.69007L18.3433 3.55408C16.3528 1.68661 13.7178 0.660488 10.9886 0.690076C8.95142 0.689973 6.95435 1.25627 5.22046 2.3257C3.48658 3.39514 2.08417 4.92558 1.16992 6.74607L4.82059 9.57808C5.68992 6.97274 8.12192 5.04207 10.9886 5.04207Z" fill="#EA4335"/>
</svg>
