<svg width="188" height="34" viewBox="0 0 188 34" fill="none" xmlns="http://www.w3.org/2000/svg">
<path d="M8.9555 33.3966C7.05192 33.3966 5.42233 32.9912 4.06675 32.1806C2.74001 31.341 1.73053 30.1829 1.03832 28.7063C0.346106 27.2297 0 25.5071 0 23.5383V9.16343H6.48949V23.0171C6.48949 23.9147 6.66255 24.7109 7.00865 25.4057C7.3836 26.0716 7.90276 26.5928 8.56613 26.9691C9.2295 27.3455 9.9794 27.5337 10.8158 27.5337C11.6811 27.5337 12.431 27.3455 13.0655 26.9691C13.7289 26.5928 14.2336 26.0716 14.5797 25.4057C14.9547 24.7109 15.1422 23.9147 15.1422 23.0171V9.16343H21.6316V32.8754H15.5748V28.1851L15.9209 29.2274C15.3729 30.6461 14.4788 31.7029 13.2386 32.3977C12.0272 33.0636 10.5995 33.3966 8.9555 33.3966Z" fill="#1C1B1B"/>
<path d="M26.591 32.8754V9.16343H33.0805V32.8754H26.591ZM26.591 7.03543V0.521141H33.0805V7.03543H26.591Z" fill="#1C1B1B"/>
<path d="M49.6402 33.3966C47.2752 33.3966 45.1409 32.861 43.2373 31.7897C41.3625 30.6895 39.8627 29.1985 38.7379 27.3166C37.6419 25.4347 37.0939 23.3211 37.0939 20.976C37.0939 18.6309 37.6419 16.5318 38.7379 14.6789C39.8339 12.797 41.3337 11.3204 43.2373 10.2491C45.1409 9.17791 47.2752 8.64229 49.6402 8.64229C51.3996 8.64229 53.0292 8.94629 54.529 9.55429C56.0288 10.1623 57.3123 11.0164 58.3794 12.1166C59.4466 13.1878 60.2109 14.4617 60.6724 15.9383L55.0481 18.3703C54.6444 17.1832 53.9521 16.2423 52.9715 15.5474C52.0197 14.8526 50.9093 14.5051 49.6402 14.5051C48.5154 14.5051 47.5059 14.7802 46.6118 15.3303C45.7465 15.8804 45.0543 16.6476 44.5352 17.632C44.0448 18.6164 43.7997 19.7455 43.7997 21.0194C43.7997 22.2933 44.0448 23.4225 44.5352 24.4069C45.0543 25.3912 45.7465 26.1585 46.6118 26.7086C47.5059 27.2587 48.5154 27.5337 49.6402 27.5337C50.9381 27.5337 52.063 27.1863 53.0148 26.4914C53.9666 25.7966 54.6444 24.8556 55.0481 23.6686L60.6724 26.144C60.2397 27.5337 59.4898 28.7787 58.4227 29.8789C57.3555 30.979 56.072 31.8476 54.5723 32.4846C53.0725 33.0926 51.4284 33.3966 49.6402 33.3966Z" fill="#1C1B1B"/>
<path d="M64.7101 32.8754V0H71.1995V21.0629L68.7768 20.2811L79.2033 9.16343H87.207L78.6408 18.7177L87.1637 32.8754H79.8089L72.6705 20.8457L76.4344 19.8903L69.2094 27.7943L71.1995 24.016V32.8754H64.7101Z" fill="#1C1B1B"/>
<path d="M90.7518 32.8754V0.521141H97.2413L109.312 16.5897H106.283L118.008 0.521141H124.497V32.8754H117.791V7.94743L120.474 8.55543L108.057 24.624H107.192L95.208 8.55543L97.4577 7.94743V32.8754H90.7518Z" fill="#1C1B1B"/>
<path d="M137.265 33.3966C135.563 33.3966 134.092 33.1215 132.852 32.5714C131.612 32.0213 130.66 31.2396 129.996 30.2263C129.333 29.184 129.001 27.9535 129.001 26.5349C129.001 25.203 129.304 24.0305 129.91 23.0171C130.516 21.9749 131.438 21.1063 132.679 20.4114C133.948 19.7166 135.52 19.2244 137.394 18.9349L144.619 17.7623V22.5394L138.562 23.6251C137.64 23.7989 136.933 24.1029 136.443 24.5371C135.952 24.9425 135.707 25.536 135.707 26.3177C135.707 27.0415 135.981 27.6061 136.529 28.0114C137.077 28.4168 137.755 28.6194 138.562 28.6194C139.63 28.6194 140.567 28.3878 141.375 27.9246C142.182 27.4613 142.802 26.8389 143.235 26.0571C143.696 25.2465 143.927 24.3634 143.927 23.408V17.2411C143.927 16.3436 143.567 15.5909 142.846 14.9829C142.153 14.3749 141.202 14.0709 139.99 14.0709C138.837 14.0709 137.813 14.3893 136.919 15.0263C136.053 15.6632 135.419 16.5029 135.015 17.5451L129.823 15.0697C130.285 13.7379 131.02 12.5943 132.03 11.6389C133.039 10.6834 134.251 9.94514 135.664 9.424C137.077 8.90286 138.62 8.64229 140.293 8.64229C142.283 8.64229 144.043 9.00419 145.571 9.728C147.1 10.4518 148.282 11.4651 149.119 12.768C149.984 14.0419 150.417 15.533 150.417 17.2411V32.8754H144.36V29.0537L145.831 28.7931C145.139 29.8354 144.374 30.704 143.538 31.3989C142.701 32.0648 141.764 32.557 140.726 32.8754C139.687 33.2229 138.534 33.3966 137.265 33.3966Z" fill="#1C1B1B"/>
<path d="M155.392 32.8754V9.16343H161.449V14.8526L161.017 14.0274C161.536 12.0297 162.387 10.6834 163.569 9.98857C164.78 9.26476 166.208 8.90286 167.852 8.90286H169.237V14.5486H167.203C165.617 14.5486 164.333 15.0408 163.353 16.0251C162.372 16.9806 161.882 18.3413 161.882 20.1074V32.8754H155.392Z" fill="#1C1B1B"/>
<path d="M184.52 33.136C181.665 33.136 179.444 32.3688 177.858 30.8343C176.3 29.2709 175.522 27.0994 175.522 24.32V14.8091H171.541V9.16343H171.758C172.969 9.16343 173.892 8.85943 174.526 8.25143C175.19 7.64343 175.522 6.73143 175.522 5.51543V3.77829H182.011V9.16343H187.549V14.8091H182.011V23.8857C182.011 24.6964 182.155 25.3768 182.444 25.9269C182.732 26.448 183.179 26.8389 183.785 27.0994C184.39 27.36 185.14 27.4903 186.035 27.4903C186.236 27.4903 186.467 27.4758 186.727 27.4469C186.986 27.4179 187.26 27.389 187.549 27.36V32.8754C187.116 32.9333 186.626 32.9912 186.078 33.0491C185.53 33.107 185.011 33.136 184.52 33.136Z" fill="#1C1B1B"/>
</svg>
