<svg width="72" height="76" viewBox="0 0 72 76" fill="none" xmlns="http://www.w3.org/2000/svg">
<path fill-rule="evenodd" clip-rule="evenodd" d="M41.4713 45.9726C44.8503 42.5806 50.3289 42.5806 53.708 45.9726L68.8501 61.1726C72.2292 64.5645 72.2292 70.064 68.8501 73.456C65.471 76.848 59.9925 76.848 56.6134 73.456L41.4713 58.256C38.0922 54.864 38.0922 49.3645 41.4713 45.9726Z" fill="#21D4B4"/>
<path d="M69.2213 34.7429C69.2213 53.9308 53.7256 69.4857 34.6106 69.4857C15.4957 69.4857 0 53.9308 0 34.7429C0 15.5549 15.4957 0 34.6106 0C53.7256 0 69.2213 15.5549 69.2213 34.7429ZM22.4265 34.7429C22.4265 41.4977 27.8815 46.9735 34.6106 46.9735C41.3397 46.9735 46.7948 41.4977 46.7948 34.7429C46.7948 27.988 41.3397 22.5122 34.6106 22.5122C27.8815 22.5122 22.4265 27.988 22.4265 34.7429Z" fill="#21D4B4"/>
</svg>
